<?xml version="1.0" encoding="utf-8"?>
<!-- Generator: Adobe Adobe Illustrator 28.7.0, SVG Export Plug-In . SVG Version: 6.00 Build 0)  -->
<svg version="1.1" id="Layer_1" xmlns="http://www.w3.org/2000/svg" xmlns:xlink="http://www.w3.org/1999/xlink" x="0px" y="0px"
	 viewBox="0 0 521 620" style="enable-background:new 0 0 521 620;" xml:space="preserve">
<style type="text/css">
	.st0{fill:none;stroke:#000000;stroke-width:28;stroke-miterlimit:10;}
	.st1{stroke:#000000;stroke-width:2.0944;stroke-miterlimit:10;}
	.st2{stroke:#000000;stroke-width:3.7375;stroke-miterlimit:10;}
</style>
<polygon class="st0" points="118.71,131.7 118.71,292.32 260.1,372.63 401.5,292.32 401.5,131.7 260.1,51.39 "/>
<g>
	<path d="M108.52,409.1h30.39l15.56,63.61h1.11l16.3-63.61h27.3l-27.05,89.43h-35.94L108.52,409.1z"/>
	<path d="M292.56,476.79v21.74h-64.23V409.1h61.14v21.25h-34.34v13.96h32.61v20.38h-32.61v12.11H292.56z"/>
	<path d="M406.69,498.53h-31.13l-14.33-23.47l-13.59,23.47h-28.66l28.29-44.84l-26.93-44.59H350l14.33,25.45l14.33-25.45h27.42
		l-27.67,44.84L406.69,498.53z"/>
</g>
<g>
	<path d="M159.9,541.85c0-10.2,5.47-16.13,14.08-16.13c6.35,0,10.78,3.09,11.24,10.16l-3.59,0.38c-0.58-4.72-2.72-7.19-7.69-7.19
		c-6.27,0-10.07,4.14-10.07,12.46c0,8.69,3.51,12.2,9.57,12.2c4.81,0,7.15-2.09,8.11-6.35l3.47,0.71
		c-1.04,6.69-6.52,8.94-11.83,8.94C163.7,557.02,159.9,550.92,159.9,541.85z"/>
	<path d="M197.18,541.39c0-8.99,4.97-15.67,14.21-15.67c9.15,0,13.33,6.69,13.33,15.09c0,9.82-4.72,16.22-13.96,16.22
		C201.4,557.02,197.18,550.46,197.18,541.39z M220.8,541.18c0-7.98-3.76-12.08-9.53-12.08c-5.85,0-10.07,4.18-10.07,12.25
		c0,8.19,3.93,12.29,9.78,12.29C216.7,553.63,220.8,549.75,220.8,541.18z"/>
	<path d="M239.19,556.52v-30.26h17.68v3.34h-13.83v10.49h12.79v3.34h-12.79v13.08H239.19z"/>
	<path d="M270.41,556.52v-30.26h17.68v3.34h-13.83v10.49h12.79v3.34h-12.79v13.08H270.41z"/>
	<path d="M319.85,553.17v3.34h-18.22v-30.26h17.68v3.34h-13.83v9.99h13v3.34h-13v10.24H319.85z"/>
	<path d="M352.24,553.17v3.34h-18.22v-30.26h17.68v3.34h-13.83v9.99h13v3.34h-13v10.24H352.24z"/>
</g>
<polygon class="st1" points="354.1,277.68 354.1,267.68 257.6,319.68 161.1,267.68 161.1,277.68 257.6,331.68 "/>
<polygon class="st1" points="356.6,246.14 356.6,218.14 260.1,268.14 163.6,218.14 163.6,246.14 260.1,300.14 "/>
<path class="st2" d="M260.1,123.48l-25.75,44.6c-10.78,18.67,2.69,42,24.25,42h3.01c21.55,0,35.03-23.33,24.25-42L260.1,123.48z"/>
</svg>
